<svg width="36" height="36" viewBox="0 0 36 36" fill="none" xmlns="http://www.w3.org/2000/svg">
<g clip-path="url(#clip0_2_11)">
<path d="M32.49 36H3.51C1.58062 36 0 34.4194 0 32.49V3.51C0 1.58062 1.58062 0 3.51 0H32.4956C34.4194 0 36 1.58062 36 3.51V32.4956C36 34.4194 34.4194 36 32.49 36Z" fill="#294DA5"/>
<path d="M21.1163 21.8981H17.1563V36H11.295V21.8981H8.505V16.9144H11.295V13.6912C11.295 11.385 12.3919 7.77374 17.2125 7.77374L21.555 7.79062V12.6281H18.405C17.8875 12.6281 17.1619 12.8869 17.1619 13.9837V16.9144H21.6281L21.1163 21.8981Z" fill="white"/>
</g>
<defs>
<clipPath id="clip0_2_11">
<rect width="36" height="36" fill="white"/>
</clipPath>
</defs>
</svg>
