<svg width="37" height="36" viewBox="0 0 37 36" fill="none" xmlns="http://www.w3.org/2000/svg">
<g clip-path="url(#clip0_2_20)">
<path d="M32.5484 36H4.45156C2.00031 36 0 34.0537 0 31.6687V4.33125C0 1.94625 2.00031 0 4.45156 0H34.0747C35.6819 0 37 1.2825 37 2.84625V31.6687C37 34.0537 34.9997 36 32.5484 36Z" fill="#F72B4D"/>
<path d="M23.4777 7.20563H13.5223C10.1461 7.20563 7.40578 9.87188 7.40578 13.1569V22.8431C7.40578 26.1281 10.1461 28.7944 13.5223 28.7944H23.4777C26.8539 28.7944 29.5942 26.1281 29.5942 22.8431V13.1569C29.5942 9.86625 26.8597 7.20563 23.4777 7.20563ZM27.802 22.8206C27.802 25.1606 25.8537 27.0506 23.4545 27.0506H13.5455C11.1405 27.0506 9.19797 25.155 9.19797 22.8206V13.1794C9.19797 10.8394 11.1462 8.94938 13.5455 8.94938H23.4545C25.8595 8.94938 27.802 10.845 27.802 13.1794V22.8206Z" fill="white"/>
<path d="M18.5 12.3075C15.2683 12.3075 12.6494 14.8556 12.6494 18C12.6494 21.1444 15.2683 23.6925 18.5 23.6925C21.7317 23.6925 24.3506 21.1444 24.3506 18C24.3506 14.8556 21.7317 12.3075 18.5 12.3075ZM18.5 21.7125C16.3956 21.7125 14.6844 20.0531 14.6844 18C14.6844 15.9525 16.3898 14.2875 18.5 14.2875C20.6102 14.2875 22.3156 15.9469 22.3156 18C22.3156 20.0475 20.6044 21.7125 18.5 21.7125Z" fill="white"/>
<path d="M24.5472 13.3988C25.272 13.3988 25.8595 12.8271 25.8595 12.1219C25.8595 11.4167 25.272 10.845 24.5472 10.845C23.8224 10.845 23.2348 11.4167 23.2348 12.1219C23.2348 12.8271 23.8224 13.3988 24.5472 13.3988Z" fill="white"/>
</g>
<defs>
<clipPath id="clip0_2_20">
<rect width="37" height="36" fill="white"/>
</clipPath>
</defs>
</svg>
