<svg width="36" height="35" viewBox="0 0 36 35" fill="none" xmlns="http://www.w3.org/2000/svg">
<g clip-path="url(#clip0_2_44)">
<path d="M33.1481 35H2.85188C1.2825 35 0 33.7531 0 32.2273V2.77266C0 1.24688 1.2825 0 2.85188 0H33.1481C34.7175 0 36 1.24688 36 2.77266V32.2273C36 33.7531 34.7175 35 33.1481 35Z" fill="#005CFF"/>
<path d="M15.975 16.2805C15.975 16.2805 18.2306 16.1164 18.2306 13.5461C18.2306 10.9703 16.3856 9.71796 14.0456 9.71796H6.35062V24.0953H14.0456C14.0456 24.0953 18.7425 24.2375 18.7425 19.8515C18.7425 19.8515 18.945 16.2805 15.975 16.2805ZM9.7425 12.2719H14.0456C14.0456 12.2719 15.0919 12.2719 15.0919 13.7703C15.0919 15.2633 14.4787 15.482 13.7812 15.482H9.7425V12.2719ZM13.8488 21.5414H9.7425V17.6969H14.0456C14.0456 17.6969 15.6038 17.6805 15.6038 19.6711C15.6038 21.3391 14.4619 21.525 13.8488 21.5414Z" fill="white"/>
<path d="M27.9281 10.5656H21.825V12.3375H27.9281V10.5656Z" fill="white"/>
<path d="M25.0087 13.3766C19.3219 13.3766 19.3275 18.9 19.3275 18.9C19.3275 18.9 18.9394 24.3961 25.0087 24.3961C25.0087 24.3961 30.0712 24.6805 30.0712 20.5734H27.4669C27.4669 20.5734 27.5513 22.1211 25.0931 22.1211C25.0931 22.1211 22.4887 22.2906 22.4887 19.6219H30.15C30.1556 19.6164 30.9937 13.3766 25.0087 13.3766ZM22.4662 17.6969C22.4662 17.6969 22.7812 15.482 25.0706 15.482C27.3544 15.482 27.3263 17.6969 27.3263 17.6969H22.4662Z" fill="white"/>
</g>
<defs>
<clipPath id="clip0_2_44">
<rect width="36" height="35" fill="white"/>
</clipPath>
</defs>
</svg>
