<svg width="36" height="35" viewBox="0 0 36 35" fill="none" xmlns="http://www.w3.org/2000/svg">
<g clip-path="url(#clip0_2_39)">
<path d="M33.2213 35H2.77875C1.24875 35 0 33.7859 0 32.2984V2.70156C0 1.21406 1.24875 0 2.77875 0H32.9062C34.605 0 36 1.35625 36 3.00781V32.2984C36 33.7859 34.7513 35 33.2213 35Z" fill="#3E6DC1"/>
<path d="M28.17 19.8461V27.2508H23.7544V20.3437C23.7544 18.6101 23.1188 17.4234 21.5156 17.4234C20.295 17.4234 19.5694 18.2219 19.2488 18.993C19.1306 19.2664 19.1025 19.6547 19.1025 20.0375V27.2508H14.6869C14.6869 27.2508 14.7488 15.5476 14.6869 14.339H19.1025V16.1711C19.0913 16.1875 19.08 16.1984 19.0744 16.2148H19.1025V16.1711C19.6875 15.2906 20.7338 14.0383 23.085 14.0383C25.9931 14.0383 28.17 15.8812 28.17 19.8461ZM7.83 27.2508H12.2456V14.339H7.83V27.2508ZM12.3806 9.95858C12.3806 11.1781 11.3625 12.168 10.1081 12.168C8.85375 12.168 7.83563 11.1781 7.83563 9.95858C7.83563 8.73905 8.85375 7.74921 10.1081 7.74921C11.3625 7.74921 12.3806 8.73905 12.3806 9.95858Z" fill="white"/>
</g>
<defs>
<clipPath id="clip0_2_39">
<rect width="36" height="35" fill="white"/>
</clipPath>
</defs>
</svg>
