<svg width="36" height="35" viewBox="0 0 36 35" fill="none" xmlns="http://www.w3.org/2000/svg">
<g clip-path="url(#clip0_2_27)">
<path d="M33.0356 35H2.96437C1.33312 35 0 33.7039 0 32.118V2.88203C0 1.29609 1.33312 0 2.96437 0H33.0356C34.6669 0 36 1.29609 36 2.88203V32.118C36 33.7039 34.6669 35 33.0356 35Z" fill="#00AFF0"/>
<path d="M29.0925 11.5391C28.2994 11.8836 27.4444 12.1133 26.55 12.2172C27.4669 11.6867 28.1644 10.8391 28.4962 9.83281C27.6412 10.325 26.6906 10.6859 25.6837 10.8773C24.8737 10.0406 23.7262 9.51562 22.4494 9.51562C20.0025 9.51562 18.0169 11.4461 18.0169 13.825C18.0169 14.1641 18.0562 14.4922 18.1294 14.8039C14.4506 14.6234 11.1825 12.9117 9 10.3031C8.6175 10.9375 8.39812 11.6812 8.39812 12.4687C8.39812 13.9617 9.18 15.2797 10.3669 16.0508C9.64125 16.0289 8.955 15.8375 8.35875 15.5094C8.35875 15.5258 8.35875 15.5477 8.35875 15.5641C8.35875 17.6531 9.88875 19.3922 11.9137 19.7859C11.5425 19.8844 11.1487 19.9391 10.7494 19.9391C10.4625 19.9391 10.1869 19.9117 9.91687 19.8625C10.4794 21.5742 12.1162 22.8156 14.0569 22.8539C12.5381 24.0078 10.6312 24.6969 8.55562 24.6969C8.20125 24.6969 7.84687 24.675 7.49812 24.6367C9.45562 25.8617 11.7844 26.5727 14.2875 26.5727C22.4381 26.5727 26.8931 20.0102 26.8931 14.3172C26.8931 14.1313 26.8875 13.9453 26.8819 13.7594C27.7481 13.1578 28.5019 12.3977 29.0925 11.5391Z" fill="white"/>
</g>
<defs>
<clipPath id="clip0_2_27">
<rect width="36" height="35" fill="white"/>
</clipPath>
</defs>
</svg>
